<svg width="101" height="103" viewBox="0 0 101 103" fill="none" xmlns="http://www.w3.org/2000/svg">
<path d="M100.172 49.6169V49.3154C100.172 46.1477 99.8703 43.133 99.1144 39.9653V39.2094C94.2864 16.5899 74.3802 0.301476 51.1534 0H50.5505C23.103 0 0.933594 22.1694 0.933594 49.6169C0.933594 77.0643 23.103 99.2338 50.5505 99.2338C55.527 99.2338 60.355 98.4779 65.0301 97.1234L66.6904 96.669L69.8581 95.4631L73.7773 96.9705L86.5966 101.947C88.7069 102.851 89.3099 101.947 87.9554 100.138L67.4463 72.3893C65.9389 70.4275 63.3741 69.8245 61.2638 70.8819C57.9476 72.5422 54.3255 73.4466 50.7078 73.5952C37.4341 73.5952 26.5766 62.8862 26.428 49.6169C26.2751 36.3432 37.137 25.4857 50.4063 25.3371C61.8668 25.3371 71.8242 33.3284 74.0831 44.4918V45.2477C74.3846 46.6065 74.3846 47.961 74.5375 49.3198V49.7742C74.5375 51.2816 74.3846 52.6404 74.0831 54.1478L82.2273 55.6552C82.5288 53.6934 82.8303 51.736 82.8303 49.7742V49.4727H92.1804V49.7742C92.1804 52.3389 92.0275 54.9036 91.5775 57.464V57.7655H91.276L82.8303 56.1052C82.3759 58.067 81.7729 60.0244 81.0214 61.9862L80.8685 62.2876L80.567 62.1347L73.0258 58.967C72.4228 60.3259 71.8199 61.5318 70.9154 62.7377L70.7625 63.0391C70.0066 64.245 68.9536 65.3024 68.0492 66.3554L73.9302 72.0878C75.289 70.729 76.6435 69.073 77.7008 67.4127L77.8538 67.1113L78.1552 67.2642L85.395 72.0922C86.7539 69.9818 87.9598 67.7186 89.0127 65.3068L89.1657 65.0053L89.4671 65.1582L96.8555 68.173C98.0614 65.3068 98.9658 62.292 99.5688 59.2729V58.9714C99.8703 55.8037 100.172 52.7846 100.172 49.6169Z" fill="#EE368E"/>
<path d="M80.2617 78.7248L85.9941 84.4573C88.2574 82.194 90.2148 79.7822 91.8751 77.2175L85.2383 72.8439C83.7309 74.9542 82.0706 76.916 80.2617 78.7248Z" fill="#EE368E"/>
</svg>
