<svg width="35" height="35" viewBox="0 0 35 35" fill="none" xmlns="http://www.w3.org/2000/svg">
<path d="M17.5 5C12.2552 5 8 8.83707 8 13.5629C8 19.0007 14.3333 27.618 16.6589 30.5944C16.7554 30.72 16.8819 30.8223 17.0281 30.8928C17.1743 30.9633 17.336 31 17.5 31C17.664 31 17.8257 30.9633 17.9719 30.8928C18.1181 30.8223 18.2446 30.72 18.3411 30.5944C20.6667 27.6192 27 19.0051 27 13.5629C27 8.83707 22.7448 5 17.5 5Z" stroke="#FFA800" stroke-width="1.5" stroke-linecap="round" stroke-linejoin="round"/>
<path d="M17.5 18C19.433 18 21 16.433 21 14.5C21 12.567 19.433 11 17.5 11C15.567 11 14 12.567 14 14.5C14 16.433 15.567 18 17.5 18Z" stroke="#FFA800" stroke-width="1.5" stroke-linecap="round" stroke-linejoin="round"/>
</svg>
